# xmcd
#
# Track frame offsets:
#	150
#	17167
#	33057
#	50689
#	64117
#	77870
#	91935
#	101850
#	115912
#	125190
#	143120
#	153907
#	166680
#
# Disc length: 2493 seconds
# Revision: 5
# Processed by: cddbd v1.5.2PL0 Copyright (c) Steve Scherf et al.
# Submitted via: dBpowerAMP V12.0
#
DISCID=a809bb0d
DTITLE=Howlin' Wolf - The London Howlin' Wolf Sessions
DYEAR=1971
DGENRE=Blues
TTITLE0=Rockin' Daddy
TTITLE1=I Ain't Superstitious
TTITLE2=Sittin' on Top of the World
TTITLE3=Worried About My Baby
TTITLE4=What a Woman!
TTITLE5=Poor Boy
TTITLE6=Built for Comfort
TTITLE7=Who's Been Talking?
TTITLE8=The Red Rooster (false start and dialogue)
TTITLE9=The Red Rooster
TTITLE10=Do the Do
TTITLE11=Highway 49
TTITLE12=Wang Dang Doodle
EXTD=
EXTT0=
EXTT1=
EXTT2=
EXTT3=
EXTT4=
EXTT5=
EXTT6=
EXTT7=
EXTT8=
EXTT9=
EXTT10=
EXTT11=
EXTT12=
PLAYORDER=
